<?xml version="1.0" encoding="UTF-8" standalone="no"?>
<!DOCTYPE svg PUBLIC "-//W3C//DTD SVG 1.1//EN" "http://www.w3.org/Graphics/SVG/1.1/DTD/svg11.dtd">
<svg width="100%" height="100%" viewBox="0 0 500 500" version="1.1" xmlns="http://www.w3.org/2000/svg" xmlns:xlink="http://www.w3.org/1999/xlink" xml:space="preserve" xmlns:serif="http://www.serif.com/" style="fill-rule:evenodd;clip-rule:evenodd;stroke-linejoin:round;stroke-miterlimit:2;">
    <g transform="matrix(2.132,0,0,2.132,-37.1693,-34.1376)">
        <g id="Colour" transform="matrix(1,0,0,1,-10.0775,39.7985)">
            <path d="M81.208,175.287C88.195,178.801 104.567,190.419 115.937,195.132C126.571,199.54 137.949,202.672 149.425,203.566C162.159,204.558 179.524,204.269 192.34,201.085C204.578,198.045 219.349,191.59 226.325,184.465C232.688,177.966 232.494,167.273 234.196,158.338C236.015,148.788 236.736,137.592 237.239,127.163C237.793,115.685 238.921,101.707 237.518,89.469C236.123,77.29 234.901,64.383 228.824,53.736C222.618,42.861 210.865,30.501 200.278,24.217C189.981,18.105 177.209,17.293 165.301,16.031C152.816,14.708 136.816,13.881 125.363,16.279C114.903,18.469 105.022,24.382 96.588,30.419C88.172,36.442 80.795,44.558 74.759,52.496C68.842,60.276 63.017,70.108 60.371,78.046C58.039,85.044 59.007,93.881 58.883,100.124C58.781,105.256 60.57,110.459 59.627,115.504C58.676,120.589 54.418,125.344 53.177,130.636C51.937,135.928 50.839,141.872 52.185,147.256C53.673,153.209 58.469,161.891 62.108,166.356C65.092,170.019 70.831,172.558 74.014,174.046C76.219,175.077 79.034,174.193 81.208,175.287Z" style="fill:rgb(220,184,153);"/>
            <clipPath id="_clip1">
                <path d="M81.208,175.287C88.195,178.801 104.567,190.419 115.937,195.132C126.571,199.54 137.949,202.672 149.425,203.566C162.159,204.558 179.524,204.269 192.34,201.085C204.578,198.045 219.349,191.59 226.325,184.465C232.688,177.966 232.494,167.273 234.196,158.338C236.015,148.788 236.736,137.592 237.239,127.163C237.793,115.685 238.921,101.707 237.518,89.469C236.123,77.29 234.901,64.383 228.824,53.736C222.618,42.861 210.865,30.501 200.278,24.217C189.981,18.105 177.209,17.293 165.301,16.031C152.816,14.708 136.816,13.881 125.363,16.279C114.903,18.469 105.022,24.382 96.588,30.419C88.172,36.442 80.795,44.558 74.759,52.496C68.842,60.276 63.017,70.108 60.371,78.046C58.039,85.044 59.007,93.881 58.883,100.124C58.781,105.256 60.57,110.459 59.627,115.504C58.676,120.589 54.418,125.344 53.177,130.636C51.937,135.928 50.839,141.872 52.185,147.256C53.673,153.209 58.469,161.891 62.108,166.356C65.092,170.019 70.831,172.558 74.014,174.046C76.219,175.077 79.034,174.193 81.208,175.287Z"/>
            </clipPath>
            <g clip-path="url(#_clip1)">
                <g id="Shadow" transform="matrix(1,0,0,1,0,4)">
                    <path d="M198.18,17.457C195.014,21.721 151.281,18.814 136.164,26.372C122.34,33.284 112.521,49.757 107.482,62.806C102.452,75.832 104.511,92.457 105.932,104.666C107.203,115.584 115.428,125.855 116.009,136.062C116.589,146.233 107.353,156.863 109.42,165.907C111.487,174.951 121.759,183.219 128.412,190.325C134.734,197.077 149.458,199.294 149.343,208.542C149.213,218.878 143.8,254.402 127.637,252.341C108.387,249.886 50.57,223.852 33.839,193.814C17.108,163.775 21.565,102.082 27.25,72.108C31.658,48.866 47.286,25.489 67.947,13.969C89.265,2.082 133.451,0.209 155.157,0.79C170.531,1.202 201.345,13.194 198.18,17.457Z" style="fill-opacity:0.25;"/>
                </g>
                <g id="Highlight" transform="matrix(1,0,0,1,0,4)">
                    <path d="M225.874,24.531C213.393,22.588 190.39,15.101 188.478,18.409C186.565,21.716 208.271,35.397 214.401,44.376C220.028,52.619 223.009,62.557 225.253,72.283C227.579,82.36 228.354,94.453 228.354,104.841C228.354,114.817 226.432,126.202 225.253,134.608C224.279,141.556 222.206,148.322 221.282,155.276C220.154,163.762 215.911,179.769 218.485,185.523C221.036,191.224 238.854,187.28 236.726,189.802C234.598,192.324 207.579,197.244 205.719,200.655C203.858,204.066 218.371,211.783 225.563,210.267C236.106,208.045 261.724,201.995 268.974,187.321C277.605,169.854 276.571,131.404 277.346,105.461C278.082,80.841 282.204,45.151 273.625,31.663C265.047,18.174 240.065,26.74 225.874,24.531Z" style="fill:white;fill-opacity:0.15;"/>
                </g>
            </g>
        </g>
        <g id="Ear-Hole" serif:id="Ear Hole" transform="matrix(0.948716,-0.31613,0.31613,0.948716,-48.5427,71.4625)">
            <path d="M67.563,130.939C67.814,131.248 68.188,131.442 68.44,131.751C68.771,132.158 69.221,133.22 69.277,133.353C69.3,133.407 69.452,133.766 69.488,134.056C69.509,134.223 69.502,134.393 69.509,134.562L69.693,138.931C69.669,139.472 69.285,140.383 69.235,140.504C69.115,140.789 68.961,141.059 68.835,141.341C68.828,141.357 68.843,141.377 68.837,141.394C68.77,141.594 68.76,141.832 68.617,141.987C68.612,141.993 68.039,142.258 68.035,142.257C67.837,142.185 67.597,142.18 67.441,142.037C67.286,141.894 67.256,141.658 67.172,141.464C67.165,141.448 67.178,141.426 67.17,141.411C67.021,141.14 66.845,140.885 66.701,140.611C66.64,140.495 66.181,139.619 66.112,139.081C66.09,138.913 66.098,138.742 66.09,138.572L65.907,134.207C65.927,133.7 66.275,132.871 66.321,132.76C66.455,132.442 66.612,132.134 66.758,131.822C66.798,131.735 66.821,131.753 67.563,130.939Z"/>
        </g>
        <g id="Inner-Ear" serif:id="Inner Ear" transform="matrix(1,0,0,1,-8.83718,43.2713)">
            <path d="M74.279,155.692L74.279,155.693C73.039,155.076 70.498,155.844 68.469,154.192C66.342,152.461 64.555,149.24 63.691,147.658C63.689,147.653 61.274,142.986 59.613,138.742C58.358,135.536 57.578,132.944 57.853,129.309C58.147,125.431 59.445,123.844 60.962,122.684C62.869,121.224 65.558,120.397 67.61,121.862C67.664,121.9 69.934,123.21 73.914,130.121C76.145,133.996 77.317,136.689 79.78,144.811C80.272,146.434 81.995,152.808 81.994,152.843C81.984,153.057 82.02,153.29 81.924,153.481C81.92,153.489 81.464,153.893 81.46,153.893C81.256,153.876 81.032,153.929 80.85,153.838C80.659,153.742 80.52,153.552 80.413,153.368C80.351,153.262 80.247,152.823 76.761,144.432C75.783,142.078 73.819,137.527 72.534,135.099C72.52,135.073 69.647,129.325 66.868,126.083C66.267,125.382 65.612,124.754 65.343,124.697C64.621,124.543 62.542,125.44 61.921,127.066C61.757,127.497 60.792,130.54 61.908,134.427C63.199,138.928 67.165,146.741 68.369,148.858C68.676,149.397 69.558,150.938 70.608,151.962C71.611,152.94 75.326,152.164 76.574,154.624C77.672,156.789 76.768,160.692 76.603,162.112C76.564,162.446 76.555,162.46 76.291,162.668C76.285,162.673 75.678,162.845 75.674,162.843C75.489,162.74 75.253,162.697 75.122,162.532C74.992,162.366 74.975,162.133 74.947,161.923C74.922,161.738 75.055,161.742 75.054,159.582C75.054,159.265 75.053,156.169 74.279,155.692Z"/>
        </g>
        <g id="Outer-Ear" serif:id="Outer Ear" transform="matrix(1,0,0,1,-10.0775,39.7985)">
            <path d="M61.556,116.674C61.569,116.696 61.583,116.721 61.599,116.749C61.383,117.001 60.985,117.316 59.823,119.596C57.121,124.898 54.523,135.635 55.273,141.664C55.292,141.821 55.796,148.69 62.245,158.941C64.907,163.173 66.217,164.399 68.727,166.748C69.646,167.608 71.682,169.344 73.571,170.443C76.401,172.089 77.375,171.808 77.855,171.727C80.453,171.286 84.063,168.662 84.549,168.309C85.832,167.376 87.009,166.4 87.515,165.981C88.362,165.279 88.227,164.918 89.328,164.91C89.336,164.91 90.577,165.414 90.579,165.418C90.753,165.829 91.094,166.207 91.097,166.654C91.105,167.638 90.85,167.565 90.197,168.303C89.597,168.981 85.988,173.727 82.13,176.068C78.575,178.225 75.702,178.311 72.254,177.216C68.953,176.168 65.927,173.997 65.426,173.637C63.824,172.487 62.508,171.409 60.718,169.493C60.41,169.164 58.126,166.904 54.761,161.196C47.051,148.118 47.545,139.957 47.577,138.606C47.738,131.837 50.098,121.542 53.529,115.321C53.538,115.305 54.197,114.155 55.075,113.061C56.791,110.922 60.461,107.426 67.044,111.679C70.75,114.074 74.044,117.933 74.725,118.71C75.101,119.14 76.675,120.936 79.265,124.228C80.155,125.359 79.87,125.52 79.319,126.849C79.317,126.853 78.124,127.286 78.115,127.285C77.314,127.267 77.304,127.207 76.697,126.683C76.079,126.151 71.353,121.941 66.981,119.058C66.595,118.803 63.436,116.72 61.716,116.674C61.634,116.672 61.596,116.666 61.556,116.674Z"/>
        </g>
        <g id="Outline" transform="matrix(1,0,0,1,-10.0775,39.7985)">
            <path d="M78.486,172.146C78.633,172.01 79.475,171.228 80.833,171.278C81.251,171.294 81.674,171.389 82.055,171.562C82.447,171.74 82.771,172.042 83.105,172.313C83.335,172.5 87.889,177.799 91.699,179.854C115.295,192.585 125.183,195.16 129.928,196.559C148.093,201.913 159.262,203.4 170.33,202.588C184.67,201.535 203.618,196.719 212.427,191.68C215.255,190.062 224.692,184.166 228.177,173.461C231.569,163.043 231.838,145.028 233.084,132.498C234.163,121.645 235.498,111.928 234.482,101.943C232.979,87.175 232.386,66.444 224.633,53.544C216.28,39.644 199.336,27.681 188.393,22.694C177.152,17.571 162.968,17.406 147.441,17.826C126.288,18.399 112.689,24.644 110.427,25.621C89.769,34.543 82.854,44.331 78.856,50.536C70.863,62.942 64.704,79.344 63.361,85.424C61.265,94.912 62.199,107.419 62.641,113.531C62.655,113.731 62.738,114.877 61.849,115.905C61.575,116.221 61.236,116.492 60.863,116.68C59.634,117.3 58.522,116.928 58.33,116.864C57.066,116.441 56.555,115.427 56.466,115.251C56.272,114.867 56.204,114.43 56.117,114.008C56.082,113.834 55.869,110.423 55.849,110.111C54.804,93.35 56.342,85.534 58.005,80.193C61.462,69.091 70.028,48.969 80.256,37.93C82.823,35.159 91.327,26.22 110.527,18.489C128.697,11.173 146.965,11.289 150.379,11.219C164.904,10.921 179.607,11.202 192.085,17.202C207.254,24.495 225.615,39.307 232.591,54.649C238.898,68.519 239.6,87.341 241.015,101.538C242.259,114.012 240.073,125.79 239.086,139.061C238.022,153.356 237.41,169.474 232.997,179.086C229.743,186.174 222.701,194.547 211.238,199.579C200.011,204.507 178.539,209.806 162.4,209.309C152.706,209.01 141.438,206.987 124.11,201.641C118.89,200.031 108.136,196.164 88.578,185.603C84.459,183.378 80.455,179.072 78.316,176.768C78.18,176.622 77.398,175.78 77.448,174.422C77.498,173.064 78.34,172.282 78.486,172.146Z"/>
        </g>
        <g id="Hair" transform="matrix(1,0,0,1,3.10078,8.78553)">
            <path id="Colour1" serif:id="Colour" d="M40.568,139.535C38.043,77.368 62.559,55.104 112.403,35.659L109.302,43.928C100.131,51.403 173.216,33.73 179.07,28.941L171.835,44.961C192.799,41.217 205.727,26.757 218.346,11.886L216.796,80.103C188.056,95.014 157.163,102.747 124.289,103.876C110.067,108.091 104.4,117.058 102.584,128.165L87.597,174.677L78.295,175.194C83.781,162.164 49.507,114.211 40.568,139.535Z" style="fill:rgb(75,75,75);"/>
            <clipPath id="_clip2">
                <path id="Colour2" serif:id="Colour" d="M40.568,139.535C38.043,77.368 62.559,55.104 112.403,35.659L109.302,43.928C100.131,51.403 173.216,33.73 179.07,28.941L171.835,44.961C192.799,41.217 205.727,26.757 218.346,11.886L216.796,80.103C188.056,95.014 157.163,102.747 124.289,103.876C110.067,108.091 104.4,117.058 102.584,128.165L87.597,174.677L78.295,175.194C83.781,162.164 49.507,114.211 40.568,139.535Z"/>
            </clipPath>
            <g clip-path="url(#_clip2)">
                <path id="Shadow1" serif:id="Shadow" d="M26.615,104.393C49.525,106.956 70.57,111.619 82.429,126.615C92.24,97.062 109.98,87.899 129.457,83.204L205.514,41.771L239.018,41.344L240.052,146.77L98.966,196.382L16.279,140.568L26.615,104.393Z" style="fill-opacity:0.25;"/>
            </g>
            <path id="Outline1" serif:id="Outline" d="M38.071,139.636C37.529,124.496 37.647,100.947 48.099,80.736C59.741,58.227 81.105,45.246 110.907,33.559C110.985,33.529 111.68,33.257 111.886,33.213C112.071,33.174 113.201,32.935 114.158,33.879C115.116,34.823 114.893,35.956 114.856,36.142C114.83,36.276 114.792,36.408 114.744,36.537C113.917,38.766 113.085,40.994 112.244,43.218C118.951,42.827 136.1,39.379 153.825,34.699C167.264,31.151 175.657,28.289 177.483,27.008C177.743,26.889 177.969,26.706 178.228,26.587C178.345,26.533 178.959,26.392 179.462,26.472C180.558,26.646 181.075,27.439 181.164,27.575C181.252,27.711 181.77,28.504 181.488,29.576C181.32,30.214 181.21,30.218 173.804,42.004C184.022,39.672 193.566,34.592 204.73,23.314C210.226,17.762 215.705,11.091 216.441,10.268C217.742,8.812 219.842,9.309 220.576,10.756C220.62,10.843 220.86,11.315 220.846,11.943C220.34,34.682 219.822,57.421 219.295,80.16C219.274,81.056 218.73,81.918 217.943,82.325C197.568,92.85 167.168,104.752 125.153,106.347C125.002,106.352 124.85,106.34 124.701,106.363C124.7,106.363 123.966,106.584 123.164,106.862C112.098,110.697 106.849,117.902 105.092,128.323C100.967,152.789 97.604,151.833 89.976,175.444C89.916,175.631 89.54,176.793 88.161,177.113C88.021,177.145 87.878,177.165 87.736,177.173C84.635,177.357 81.535,177.529 78.433,177.69C77.052,177.762 76.368,176.799 76.256,176.641C75.609,175.73 75.821,174.799 75.857,174.64C75.971,174.138 76.574,173.321 76.326,170.603C75.351,159.926 62.081,139.762 51.821,135.502C47.529,133.72 45.069,135.241 43.31,139.372C42.987,140.129 42.865,140.674 42.505,141.116C41.605,142.219 40.392,142.037 40.196,142.007C39.058,141.836 38.537,141.001 38.448,140.859C38.295,140.614 38.262,140.509 38.252,140.476C38.125,140.063 38.198,140.048 38.071,139.636ZM42.893,131.669C44.511,130.438 46.628,129.603 49.365,129.793C61.615,130.643 77.163,152.538 80.627,166.332C81.494,169.782 81.485,172.175 81.25,173.772C83.054,173.598 85.101,173.682 85.744,172.276C95.756,150.405 95.867,150.308 100.309,126.669C102.372,115.685 108.375,106.107 123.23,101.584C124.074,101.327 124.085,101.383 124.966,101.35C157.386,100.134 186.602,92.455 212.976,79.245C213.136,79.164 213.135,79.164 214.978,78.228L215.004,78.279L217.882,16.278C206.399,29.636 193.3,43.571 172.53,47.376C172.477,47.386 172.08,47.459 171.864,47.461C170.493,47.477 169.848,46.491 169.742,46.33C169.134,45.4 169.375,44.483 169.417,44.326C169.494,44.031 169.538,43.961 169.556,43.932C173.228,38.077 174.08,36.822 176.513,32.988C173.702,34.101 168.908,35.727 160.663,38.026C144.082,42.648 116.062,49.127 109.289,48.138C109.111,48.112 106.798,47.885 106.149,45.897C105.426,43.68 107.625,42.071 107.649,42.051L107.664,42.069L109.507,39.505C87.705,48.347 67.877,58.91 55.981,77.129C52.083,83.098 49.035,89.856 46.865,97.654C43.446,109.941 42.854,122.67 42.893,131.669Z"/>
        </g>
        <g id="Eyes" transform="matrix(1,0,0,1,-6.45999,36.4342)">
            <ellipse id="Left-Eye" serif:id="Left Eye" cx="154.091" cy="124.918" rx="18.217" ry="27.907" style="fill:rgb(22,22,22);"/>
            <clipPath id="_clip3">
                <ellipse id="Left-Eye1" serif:id="Left Eye" cx="154.091" cy="124.918" rx="18.217" ry="27.907"/>
            </clipPath>
            <g clip-path="url(#_clip3)">
                <g id="Highlight1" serif:id="Highlight" transform="matrix(1,0,0,1,5.81395,-5.42635)">
                    <ellipse cx="154.091" cy="124.918" rx="18.217" ry="27.907" style="fill:rgb(31,31,31);"/>
                </g>
            </g>
            <g id="Right-Eye" serif:id="Right Eye" transform="matrix(1,0,0,1,44.186,0)">
                <ellipse cx="154.091" cy="124.918" rx="18.217" ry="27.907" style="fill:rgb(22,22,22);"/>
                <clipPath id="_clip4">
                    <ellipse cx="154.091" cy="124.918" rx="18.217" ry="27.907"/>
                </clipPath>
                <g clip-path="url(#_clip4)">
                    <g id="Highlight2" serif:id="Highlight" transform="matrix(1,0,0,1,5.81395,-5.42635)">
                        <ellipse cx="154.091" cy="124.918" rx="18.217" ry="27.907" style="fill:rgb(31,31,31);"/>
                    </g>
                </g>
            </g>
        </g>
    </g>
</svg>
